<svg xmlns="http://www.w3.org/2000/svg" width="36.282" height="36.219" viewBox="0 0 36.282 36.219">
  <g id="Colors" transform="translate(0.772 0.75)" style="mix-blend-mode: luminosity;isolation: isolate">
    <path id="Path_3" data-name="Path 3" d="M8.3,46.588A6.859,6.859,0,0,1,15.188,39.7H36.131a6.888,6.888,0,0,1,0,13.776H15.188A6.859,6.859,0,0,1,8.3,46.588Z" transform="translate(-8.259 -18.757)" fill="#f3f3f3"/>
    <path id="Path_6" data-name="Path 6" d="M19.95,39.7H15.288a6.888,6.888,0,1,0,0,13.776H19.95Z" transform="translate(-8.289 -18.757)" fill="#fff"/>
    <path id="Path_7" data-name="Path 7" d="M20.011,42H14.723a6.123,6.123,0,1,0,0,12.245h5.288Z" transform="translate(-8.35 -19.457)" fill="#e7d0a8"/>
    <path id="Path_8" data-name="Path 8" d="M20.041,42H13.71a5.01,5.01,0,0,0,0,10.019h6.331Z" transform="translate(-8.38 -19.457)" fill="#ffe4b8"/>
    <path id="Path_9" data-name="Path 9" d="M8.3,46.588A6.859,6.859,0,0,1,15.188,39.7H36.131a6.888,6.888,0,0,1,0,13.776H15.188A6.859,6.859,0,0,1,8.3,46.588Zm11.619,6.888V40.813" transform="translate(-8.259 -18.757)" fill="none" stroke="#231f20" stroke-linecap="round" stroke-miterlimit="10" stroke-width="1.5"/>
    <ellipse id="Ellipse_9" data-name="Ellipse 9" cx="1.67" cy="1.67" rx="1.67" ry="1.67" transform="translate(4.842 26.161)" fill="#fff"/>
    <ellipse id="Ellipse_10" data-name="Ellipse 10" cx="1.67" cy="1.67" rx="1.67" ry="1.67" transform="translate(4.842 26.161)" fill="none" stroke="#231f20" stroke-linecap="round" stroke-miterlimit="10" stroke-width="1.5"/>
    <path id="Path_11" data-name="Path 11" d="M8.773,45.411A6.889,6.889,0,0,1,12.6,36.436l19.412-7.862a6.9,6.9,0,1,1,5.149,12.8L17.749,49.238A6.841,6.841,0,0,1,8.773,45.411Z" transform="translate(-8.245 -15.215)" fill="#fff"/>
    <path id="Path_12" data-name="Path 12" d="M9.564,46.992l-.348-.835a5.636,5.636,0,0,1,3.131-7.375l21.708-8.767a5.636,5.636,0,0,1,7.375,3.131A6.643,6.643,0,0,1,37.812,41.7L16.939,50.123a5.636,5.636,0,0,1-7.375-3.131Z" transform="translate(-8.409 -15.683)" fill="#e83f62"/>
    <path id="Path_13" data-name="Path 13" d="M8.939,45.533a5.023,5.023,0,0,1,2.783-6.54l22.891-9.254a5.026,5.026,0,0,1,3.757,9.323L15.479,48.316A5.023,5.023,0,0,1,8.939,45.533Z" transform="translate(-8.341 -15.615)" fill="#f45878"/>
    <path id="Path_14" data-name="Path 14" d="M17.027,37.6l-4.314,1.739a6.9,6.9,0,1,0,5.149,12.8L22.175,50.4,17.027,37.6Z" transform="translate(-8.288 -18.119)" fill="#fff"/>
    <path id="Path_15" data-name="Path 15" d="M17.884,39.7l-4.87,1.948a6.148,6.148,0,0,0-3.409,8,6.015,6.015,0,0,0,7.932,3.34l4.87-1.948Z" transform="translate(-8.52 -18.757)" fill="#e7d0a8"/>
    <path id="Path_16" data-name="Path 16" d="M17.736,39.7l-5.914,2.366a5.026,5.026,0,1,0,3.757,9.323l5.914-2.366Z" transform="translate(-8.371 -18.757)" fill="#ffe4b8"/>
    <path id="Path_17" data-name="Path 17" d="M8.773,45.411A6.889,6.889,0,0,1,12.6,36.436l19.412-7.862a6.9,6.9,0,1,1,5.149,12.8L17.749,49.238A6.841,6.841,0,0,1,8.773,45.411ZM22.132,47.5,17.4,35.74" transform="translate(-8.245 -15.215)" fill="none" stroke="#231f20" stroke-linecap="round" stroke-miterlimit="10" stroke-width="1.5"/>
    <ellipse id="Ellipse_11" data-name="Ellipse 11" cx="1.67" cy="1.67" rx="1.67" ry="1.67" transform="translate(4.351 26.909) rotate(-21.998)" fill="#fff"/>
    <ellipse id="Ellipse_12" data-name="Ellipse 12" cx="1.67" cy="1.67" rx="1.67" ry="1.67" transform="translate(4.351 26.909) rotate(-21.998)" fill="none" stroke="#231f20" stroke-linecap="round" stroke-miterlimit="10" stroke-width="1.5"/>
    <g id="Group_6" data-name="Group 6" transform="translate(0.024 5.897)">
      <path id="Path_19" data-name="Path 19" d="M10.31,44.671a6.845,6.845,0,0,1,0-9.741L25.06,20.11A6.888,6.888,0,0,1,34.8,29.851l-14.75,14.82A6.845,6.845,0,0,1,10.31,44.671Z" transform="translate(-8.275 -18.075)" fill="#f3f3f3"/>
      <path id="Path_22" data-name="Path 22" d="M13.68,37.4l-3.27,3.27a6.888,6.888,0,0,0,9.741,9.741l3.27-3.27Z" transform="translate(-8.305 -23.954)" fill="#fff"/>
      <path id="Path_23" data-name="Path 23" d="M15.181,39.1l-3.757,3.757a6.1,6.1,0,0,0,8.627,8.627l3.757-3.757Z" transform="translate(-8.693 -24.472)" fill="#e7d0a8"/>
      <path id="Path_24" data-name="Path 24" d="M15.014,39.1l-4.453,4.453a5.018,5.018,0,0,0,7.1,7.1L22.111,46.2l-7.1-7.1Z" transform="translate(-8.526 -24.472)" fill="#ffe4b8"/>
      <path id="Path_25" data-name="Path 25" d="M10.31,44.671a6.845,6.845,0,0,1,0-9.741L25.06,20.11A6.888,6.888,0,0,1,34.8,29.851l-14.75,14.82A6.845,6.845,0,0,1,10.31,44.671Zm13.08-3.34-8.906-8.975" transform="translate(-8.275 -18.075)" fill="none" stroke="#231f20" stroke-linecap="round" stroke-miterlimit="10" stroke-width="1.5"/>
      <circle id="Ellipse_13" data-name="Ellipse 13" cx="1.67" cy="1.67" r="1.67" transform="matrix(0.707, -0.707, 0.707, 0.707, 4.248, 21.984)" fill="#fff"/>
      <circle id="Ellipse_14" data-name="Ellipse 14" cx="1.67" cy="1.67" r="1.67" transform="matrix(0.707, -0.707, 0.707, 0.707, 4.248, 21.984)" fill="none" stroke="#231f20" stroke-linecap="round" stroke-miterlimit="10" stroke-width="1.5"/>
    </g>
    <g id="Group_7" data-name="Group 7" transform="translate(0 1.361)">
      <path id="Path_27" data-name="Path 27" d="M12.526,44.313a6.91,6.91,0,0,1-3.757-9.045l8-19.342a6.926,6.926,0,1,1,12.8,5.288l-8,19.412A6.936,6.936,0,0,1,12.526,44.313Z" transform="translate(-8.24 -11.582)" fill="#fff"/>
      <path id="Path_28" data-name="Path 28" d="M14.191,44.687l-.557-.209A5.81,5.81,0,0,1,10.5,36.894l8.836-21.36A5.81,5.81,0,0,1,26.923,12.4,6.4,6.4,0,0,1,30.4,20.752l-8.7,20.8A5.732,5.732,0,0,1,14.191,44.687Z" transform="translate(-8.792 -11.677)" fill="#e83f62"/>
      <path id="Path_29" data-name="Path 29" d="M12.748,44.009a5.069,5.069,0,0,1-2.713-6.61L19.5,14.648a5.052,5.052,0,0,1,9.323,3.9L19.358,41.3A5.011,5.011,0,0,1,12.748,44.009Z" transform="translate(-8.671 -11.556)" fill="#f45878"/>
      <path id="Path_30" data-name="Path 30" d="M10.578,39.4,8.769,43.714A6.926,6.926,0,1,0,21.571,49l1.809-4.314Z" transform="translate(-8.24 -20.027)" fill="#fff"/>
      <path id="Path_31" data-name="Path 31" d="M12.709,40.2l-2.018,4.87A6.112,6.112,0,1,0,21.963,49.8l2.018-4.87L12.709,40.2Z" transform="translate(-8.841 -20.271)" fill="#e7d0a8"/>
      <path id="Path_32" data-name="Path 32" d="M12.57,40.2l-2.435,5.844a5.052,5.052,0,0,0,9.323,3.9L21.893,44.1Z" transform="translate(-8.702 -20.271)" fill="#ffe4b8"/>
      <path id="Path_33" data-name="Path 33" d="M12.526,44.313a6.91,6.91,0,0,1-3.757-9.045l8-19.342a6.926,6.926,0,1,1,12.8,5.288l-8,19.412A6.936,6.936,0,0,1,12.526,44.313ZM23.38,36.242l-11.689-4.87" transform="translate(-8.24 -11.582)" fill="none" stroke="#231f20" stroke-linecap="round" stroke-miterlimit="10" stroke-width="1.5"/>
      <ellipse id="Ellipse_15" data-name="Ellipse 15" cx="1.67" cy="1.67" rx="1.67" ry="1.67" transform="translate(4.573 27.634) rotate(-67.487)" fill="#fff"/>
      <ellipse id="Ellipse_16" data-name="Ellipse 16" cx="1.67" cy="1.67" rx="1.67" ry="1.67" transform="translate(4.573 27.634) rotate(-67.487)" fill="none" stroke="#231f20" stroke-linecap="round" stroke-miterlimit="10" stroke-width="1.5"/>
    </g>
    <g id="Group_8" data-name="Group 8" transform="translate(0.041 0)">
      <path id="Path_35" data-name="Path 35" d="M15.188,44.319A6.859,6.859,0,0,1,8.3,37.431V16.488a6.888,6.888,0,0,1,13.776,0V37.431A6.859,6.859,0,0,1,15.188,44.319Z" transform="translate(-8.3 -9.6)" fill="#f3f3f3"/>
      <path id="Path_38" data-name="Path 38" d="M8.3,42.8v4.662a6.888,6.888,0,1,0,13.776,0V42.8Z" transform="translate(-8.3 -19.701)" fill="#fff"/>
      <path id="Path_41" data-name="Path 41" d="M22.076,21.776V37.431a6.888,6.888,0,1,1-13.776,0V24.072m13.776-4.522v1.113M8.3,22.82V16.488a6.888,6.888,0,0,1,13.776,0v1.948m0,14.263H9.413" transform="translate(-8.3 -9.6)" fill="none" stroke="#231f20" stroke-linecap="round" stroke-miterlimit="10" stroke-width="1.5"/>
      <ellipse id="Ellipse_17" data-name="Ellipse 17" cx="2.978" cy="2.978" rx="2.978" ry="2.978" transform="translate(3.911 25.271)" fill="#f45878"/>
    </g>
  </g>
</svg>
