<svg xmlns="http://www.w3.org/2000/svg" width="41.846" height="41.846" viewBox="0 0 41.846 41.846">
  <g id="Industry" style="mix-blend-mode: luminosity;isolation: isolate">
    <rect id="Rectangle_37" data-name="Rectangle 37" width="11.085" height="3.695" rx="1.848" transform="translate(26.502 11.07)" fill="#f45878"/>
    <g id="industry-2" data-name="industry">
      <path id="Path_63" data-name="Path 63" d="M5.41.529a.7.7,0,0,0-.695.695,4.209,4.209,0,0,0,1.2,2.734A4.089,4.089,0,0,0,8.9,5.41H21.452a.691.691,0,0,1,.695.7,2.1,2.1,0,0,0,2.1,2.091h6.276a.689.689,0,0,1,.695.7v2.09H28.429A2.092,2.092,0,0,0,27.594,15l-2.23,9.936h-6.7v-6.97a.7.7,0,0,0-1.169-.515l-7.2,6.6V17.968a.7.7,0,0,0-1.169-.515L.757,25.123a.7.7,0,0,0-.227.515V40.286a2.089,2.089,0,0,0,2.091,2.09H32.959a21.346,21.346,0,0,0,6.379-.865,6.922,6.922,0,0,0,2.08-1.008,2.151,2.151,0,0,0,.958-1.659v-.056L38.293,15.015a2.091,2.091,0,0,0-.8-4.024H35.4V7.506a4.148,4.148,0,0,0-1.163-3.023A4.159,4.159,0,0,0,31.214,3.32H27.033a.7.7,0,0,1-.7-.7A2.087,2.087,0,0,0,24.243.529Zm.848,1.4H24.243a.69.69,0,0,1,.695.695,2.1,2.1,0,0,0,2.1,2.1h4.181a2.793,2.793,0,0,1,2.039.752A2.779,2.779,0,0,1,34,7.506v3.484h-1.4V8.9a2.083,2.083,0,0,0-2.09-2.1H24.243a.7.7,0,0,1-.7-.695,2.09,2.09,0,0,0-2.091-2.1H8.9a2.738,2.738,0,0,1-1.952-.989,3.571,3.571,0,0,1-.691-1.1ZM28.429,12.387h9.065a.7.7,0,0,1,0,1.395H28.429a.7.7,0,1,1,0-1.395Zm.556,2.79H36.9l4.065,23.677c0,.1-.064.282-.4.541a5.79,5.79,0,0,1-1.658.787,17.694,17.694,0,0,1-4.309.744,2.03,2.03,0,0,0,.1-.64V27.033a2.1,2.1,0,0,0-2.1-2.1H26.792ZM8.9,19.548v6.09a.7.7,0,0,0,1.169.515l7.2-6.605v6.09a.7.7,0,0,0,.7.695H32.608a.7.7,0,0,1,.7.7V40.286a.694.694,0,0,1-.7.695H31.214V31.914a1.39,1.39,0,0,0-1.389-1.395H22.147a1.4,1.4,0,0,0-1.395,1.395V40.98H2.62a.69.69,0,0,1-.695-.695V25.942ZM22.147,31.914h7.677V40.98H22.147Z" transform="translate(-0.529 -0.529)"/>
    </g>
    <g id="industry-3" data-name="industry" transform="translate(2.791 29.208)">
      <path id="Path_63-2" data-name="Path 63" d="M3.554,21.865a.88.88,0,0,0-.891.885v2.408a.891.891,0,0,0,.891.885H8.748a.878.878,0,0,0,.885-.885V22.75a.883.883,0,0,0-.885-.885Zm8.365,0a.892.892,0,0,0-.891.885v2.408a.892.892,0,0,0,.891.885h5.2a.888.888,0,0,0,.891-.885V22.75a.888.888,0,0,0-.891-.885ZM4.058,23.259H8.244v1.389H4.058Zm8.367,0H16.61v1.389H12.425ZM3.554,27.44a.891.891,0,0,0-.891.891v2.4a.89.89,0,0,0,.891.89H8.748a.887.887,0,0,0,.885-.89v-2.4a.888.888,0,0,0-.885-.891Zm8.365,0a.9.9,0,0,0-.891.891v2.4a.894.894,0,0,0,.891.89h5.2a.892.892,0,0,0,.891-.89v-2.4a.893.893,0,0,0-.891-.891ZM4.058,28.835H8.244V30.23H4.058Zm8.367,0H16.61V30.23H12.425Z" transform="translate(-2.664 -21.865)" fill="#f45878"/>
    </g>
  </g>
</svg>
