<svg version="1.1" id="Layer_1" xmlns="http://www.w3.org/2000/svg" x="0" y="0" viewBox="0 0 91.5 26.7" style="enable-background:new 0 0 91.5 26.7" xml:space="preserve"><style>.st0{fill:#f15874}</style><path class="st0" d="M17.2 4.3h-3v7.3h2.6c1.2 0 2.2-.3 2.9-.9.8-.6 1.2-1.6 1.2-2.8 0-1.1-.3-2-.9-2.7-.7-.5-1.6-.9-2.8-.9m-.4 6.6H15V5.2h2.1c.9 0 1.7.3 2.1.8.6.4.8 1.1.8 2s-.3 1.6-.8 2.1c-.6.5-1.4.8-2.4.8m7.5-4.7c-.8 0-1.5.3-2 .8s-.8 1.2-.8 2 .2 1.5.7 2 1.2.8 2.1.8c.6 0 1.1-.1 1.6-.4.5-.3.9-.8 1.1-1.5v-.2h-.9v.1c-.3.8-.9 1.1-1.8 1.1-1.2 0-1.8-.5-1.9-1.6h4.7v-.5c0-.8-.3-1.4-.8-1.9s-1.1-.7-2-.7m0 .8c.5 0 1 .2 1.3.5s.5.6.5 1.1h-3.7c.1-.4.3-.8.6-1.1.3-.3.8-.5 1.3-.5m6.5 1.6c-.5-.1-.9-.2-1.1-.2-.9-.2-.9-.5-.9-.6 0-.3.1-.5.4-.6.2-.1.5-.2.9-.2.5 0 .9.1 1.1.3.2.2.3.5.3.9v.2h.9v-.2c0-.9-.4-2-2.4-2-.5 0-1 .1-1.4.4-.5.3-.7.7-.7 1.3 0 .8.6 1.3 1.7 1.5.8.1 1 .2 1 .2.9.2.9.6.9.7 0 .3-.1.5-.4.6-.2.1-.6.2-.9.2-.6 0-1-.1-1.2-.3s-.4-.6-.4-1.1v-.3h-.9v.2c0 1.5.9 2.2 2.5 2.2.6 0 1.1-.1 1.5-.3.5-.3.8-.7.8-1.3-.1-.9-.6-1.4-1.7-1.6m2.7-2.4h.9v5.4h-.9V6.2zm6.3.6c-.4-.4-1-.6-1.8-.6s-1.5.3-2 .8-.7 1.2-.7 2 .2 1.5.7 2 1.1.8 1.9.8c.8 0 1.4-.2 1.9-.6v.2c0 1-.6 1.4-1.8 1.4-1 0-1.5-.4-1.6-1.2v-.2h-.9v.2c0 .7.3 1.3.9 1.6.4.3 1 .4 1.6.4 1.7 0 2.6-.8 2.6-2.2v-5h-.9l.1.4zM38 7c.6 0 1 .2 1.3.6s.5.8.5 1.4-.2 1-.5 1.4c-.3.3-.8.5-1.4.5-.6 0-1-.2-1.3-.6-.3-.3-.5-.8-.5-1.4 0-.6.2-1 .5-1.4.4-.3.8-.5 1.4-.5m7.9-.3c-.4-.3-.9-.5-1.6-.5-.7 0-1.3.2-1.7.5v-.4h-.9v5.4h.9v-3c0-.5.1-.9.5-1.2.3-.3.7-.5 1.2-.5.4 0 .8.1 1 .3.3.2.4.5.4.9v3.5h.9V8.1c0-.6-.2-1.1-.7-1.4"/><path d="M34.6 4.9c0 .4-.3.7-.7.7s-.7-.3-.7-.7c0-.4.3-.7.7-.7.4.1.7.4.7.7M20 21.9l-4.5-8.8h-1.3v10.7h1.3v-8l4 8h.9l4-8v8h1.3V13.1h-1.2L20 21.9zm13.7-5.1c-.7-.7-1.6-1-2.7-1-1.3 0-2.2.4-3 1.2-.7.7-1 1.7-1 2.9s.3 2.1 1 2.9 1.7 1.2 2.9 1.2 2.1-.3 2.8-1v.9h1.2V16h-1.2v.8zm-2.8.2c.9 0 1.6.3 2.1.8s.7 1.2.7 2.1c0 .8-.3 1.5-.8 2s-1.2.8-2 .8c-.9 0-1.5-.3-2-.8-.4-.5-.7-1.2-.7-2s.2-1.5.7-2.1c.5-.5 1.1-.8 2-.8m11.8-.5c-.6-.4-1.4-.7-2.3-.7-1 0-1.8.3-2.5.8V16h-1.2v7.8H38v-4.3c0-.7.2-1.3.7-1.8.4-.4 1-.7 1.8-.7.6 0 1.2.1 1.5.4.4.3.5.7.5 1.3v5h1.2v-5.1c0-.9-.3-1.6-1-2.1m8.8-.1c-.6-.5-1.4-.7-2.3-.7-1 0-1.8.3-2.5.8v-3.3h-1.2v10.6h1.2v-4.4c0-.8.2-1.3.7-1.8.4-.5 1-.7 1.8-.7.6 0 1.2.2 1.5.5.4.3.5.7.5 1.3v5.1h1.2v-5.2c.1-1-.2-1.7-.9-2.2m9 .4c-.7-.7-1.6-1-2.7-1-1.3 0-2.2.4-3 1.2-.7.7-1 1.7-1 2.9s.3 2.1 1 2.9 1.7 1.2 2.9 1.2 2.1-.3 2.8-1v.9h1.2V16h-1.2v.8zm-2.8.2c.9 0 1.6.3 2.1.8s.7 1.2.7 2.1c0 .8-.3 1.5-.8 2s-1.2.8-2 .8c-.9 0-1.5-.3-2-.8-.4-.5-.7-1.2-.7-2s.2-1.5.7-2.1c.5-.5 1.2-.8 2-.8m8-2.9h-1.2v2.2H63v1.2h1.5v6.3h1.2v-6.3h1.5v-1.2h-1.5v-2.2zm4.9 0h-1.3v2.2h-1.5v1.2h1.5l.1 6.3h1.2v-6.3h1.5v-1.2h-1.5v-2.2zm8.9 2.7c-.7-.7-1.6-1-2.7-1-1.3 0-2.2.4-3 1.2-.7.7-1 1.7-1 2.9s.3 2.1 1 2.9 1.7 1.2 2.9 1.2 2.1-.3 2.8-1v.9h1.2V16h-1.2v.8zm-2.8.2c.9 0 1.6.3 2.1.8s.7 1.2.7 2.1c0 .8-.3 1.5-.8 2s-1.2.8-2 .8c-.9 0-1.5-.3-2-.8-.4-.5-.7-1.2-.7-2s.2-1.5.7-2.1c.5-.5 1.1-.8 2-.8m11.9-.5c-.6-.4-1.4-.7-2.3-.7-1 0-1.8.3-2.5.8V16h-1.2v7.8h1.2v-4.3c0-.7.2-1.3.7-1.8.4-.4 1-.7 1.8-.7.6 0 1.2.1 1.5.4.4.3.5.7.5 1.3v5h1.2v-5.1c.1-.9-.3-1.6-.9-2.1M8.2 21.7v-5.2h-.5v5.1c.2 0 .3.1.5.1m-1.1-.2v-5h-.5v4.9c.2 0 .3 0 .5.1M6 21.4v-4.9h-.4v5c.1-.1.2-.1.4-.1m-1.1.2v-5.1h-.4v5.2c.1 0 .3-.1.4-.1M6.3 3.3c-.1 0-.2-.1-.2-.2V.4c0-.1.1-.2.2-.2s.2.1.2.2v2.8c0 .1-.1.1-.2.1"/><path class="st0" d="M6.8 14.2h-1l.5-1.9.5 1.9zM9 16.9l-.2-.8 1.7.1-1.5.7zm-5.4 0 .2-.8-1.7.1 1.5.7zm4.7-1.8-.6-.5 1.3-1-.7 1.5zm-4 0 .7-.5-1.4-1 .7 1.5z"/><path d="M7.6 6.2H5.1L6 2.6c.1-.3.5-.3.6 0l1 3.6z"/><path d="M10.2 10.8h-.6v-1c0-1.8-1.5-3.3-3.3-3.3S3 8 3 9.8v.9h-.6v-.9c0-2.1 1.7-3.9 3.9-3.9s3.9 1.7 3.9 3.9v1z"/><path class="st0" d="M6.8 8.7h-.9l.4-1.8.5 1.8zm1.3.5-.6-.3.9-1.1-.3 1.4zm-3.6 0 .7-.3-.9-1.1.2 1.4z"/><path class="st0" d="M10.8 14.2h-.6V13c0-2.2-1.8-3.9-3.9-3.9-2.2 0-3.9 1.8-3.9 3.9v1.2h-.6V13c0-2.5 2-4.5 4.5-4.5s4.5 2 4.5 4.5v1.2z"/><path d="M6.9 11.9H5.7l.6-2.4.6 2.4zm1.7.5-1-.3 1.1-1.6-.1 1.9zm-4.5 0 .9-.3-1.1-1.6.2 1.9z"/><path class="st0" d="M6.3 26.1 7.5 24c-.8-.3-1.6-.3-2.4 0l1.2 2.1z"/><path d="M11.6 26.5H11v-9.7c0-2.6-2.1-4.7-4.7-4.7s-4.7 2.1-4.7 4.7v9.7H1v-9.7c0-2.9 2.4-5.3 5.3-5.3s5.3 2.4 5.3 5.3v9.7z"/><path class="st0" d="m6.3 26.5-2.8-4.6V17c0-1.6 1.3-2.8 2.8-2.8 1.6 0 2.8 1.3 2.8 2.8v5l-2.8 4.5zm-2.5-4.7 2.5 4 2.5-4V17c0-1.4-1.1-2.5-2.5-2.5S3.8 15.6 3.8 17v4.8z"/><path class="st0" d="M3.9 15.8h4.8v.3H3.9v-.3z"/></svg>