<svg xmlns="http://www.w3.org/2000/svg" width="35.469" height="35.469" viewBox="0 0 35.469 35.469">
  <g id="Style" transform="translate(-115.5 -143.5)" style="mix-blend-mode: luminosity;isolation: isolate">
    <path id="magic" d="M21.946,7.944,26.6,12.378,4.877,34.324,0,29.669,21.946,7.944Zm0,3.1-5.32,5.542,1.33,1.33L23.5,12.378l-1.552-1.33Z" transform="translate(115.5 144.644)"/>
    <path id="magic-2" data-name="magic" d="M34.073,11.084h-6.65V13.3h6.65ZM22.989,0H20.772V6.65h2.217ZM20.772,24.385h2.217V18.843L20.772,21.06ZM9.688,13.3h3.325l2.217-2.217H9.688Zm17.444,2.574-1.567,1.567,6.584,6.584,1.567-1.567-6.584-6.584ZM11.614.357,10.047,1.924l6.584,6.584L18.2,6.941,11.614.357ZM32.219.441,24.538,8.122,26.105,9.69l7.681-7.681Z" transform="translate(116.896 143.5)" fill="#f45878"/>
  </g>
</svg>
